<mxfile modified="2024-07-11T22:30:29.441Z" host="app.diagrams.net" agent="Mozilla/5.0 (Macintosh; Intel Mac OS X 10_15_7) AppleWebKit/605.1.15 (KHTML, like Gecko) Version/17.5 Safari/605.1.15" etag="qfjIPLFP-gxs3t0eVq4q" version="24.6.5" type="github">
  <diagram id="Ht1M8jgEwFfnCIfOTk4-" name="Page-1">
    <mxGraphModel dx="1679" dy="949" grid="1" gridSize="10" guides="1" tooltips="1" connect="1" arrows="1" fold="1" page="1" pageScale="1" pageWidth="1169" pageHeight="827" math="0" shadow="0">
      <root>
        <mxCell id="0" />
        <mxCell id="1" parent="0" />
        <mxCell id="-QjtrjUzRDEMRZ5MF8oH-9" value="1" style="rounded=1;whiteSpace=wrap;html=1;fillColor=#007CBD;strokeColor=none;fontColor=#FFFFFF;fontStyle=1;fontSize=22;" parent="1" vertex="1">
          <mxGeometry x="84.5" y="280" width="40" height="38" as="geometry" />
        </mxCell>
        <mxCell id="-QjtrjUzRDEMRZ5MF8oH-27" value="2" style="rounded=1;whiteSpace=wrap;html=1;fillColor=#007CBD;strokeColor=none;fontColor=#FFFFFF;fontStyle=1;fontSize=22;" parent="1" vertex="1">
          <mxGeometry x="470" y="228.5" width="40" height="38" as="geometry" />
        </mxCell>
        <mxCell id="-QjtrjUzRDEMRZ5MF8oH-47" value="AWS EFS automount to AWS EC2 instances across multiple AZs" style="text;html=1;resizable=0;points=[];autosize=1;align=left;verticalAlign=top;spacingTop=-4;fontSize=30;fontStyle=1" parent="1" vertex="1">
          <mxGeometry x="56.5" y="64.5" width="890" height="40" as="geometry" />
        </mxCell>
        <mxCell id="-QjtrjUzRDEMRZ5MF8oH-49" value="AWS EFS share" style="text;html=1;resizable=0;points=[];autosize=1;align=left;verticalAlign=top;spacingTop=-4;fontSize=16;fontStyle=1" parent="1" vertex="1">
          <mxGeometry x="140" y="288" width="140" height="30" as="geometry" />
        </mxCell>
        <mxCell id="SCVMTBWpLvtzJIhz15lM-1" value="" style="line;strokeWidth=2;html=1;fontSize=14;" parent="1" vertex="1">
          <mxGeometry x="52.5" y="139.5" width="1060" height="10" as="geometry" />
        </mxCell>
        <mxCell id="SCVMTBWpLvtzJIhz15lM-2" value="&lt;span&gt;&lt;font style=&quot;font-size: 15px;&quot;&gt;EC2 instances&lt;/font&gt;&lt;/span&gt;" style="text;html=1;resizable=0;points=[];autosize=1;align=left;verticalAlign=top;spacingTop=-4;fontSize=14;fontStyle=1" parent="1" vertex="1">
          <mxGeometry x="870" y="180.5" width="120" height="30" as="geometry" />
        </mxCell>
        <mxCell id="SCVMTBWpLvtzJIhz15lM-5" value="" style="shape=curlyBracket;whiteSpace=wrap;html=1;rounded=1;fontSize=14;" parent="1" vertex="1">
          <mxGeometry x="440" y="375" width="20" height="290" as="geometry" />
        </mxCell>
        <mxCell id="ogxp5oRoSXKM8MfKZvjc-4" value="AWS EFS" style="sketch=0;points=[[0,0,0],[0.25,0,0],[0.5,0,0],[0.75,0,0],[1,0,0],[0,1,0],[0.25,1,0],[0.5,1,0],[0.75,1,0],[1,1,0],[0,0.25,0],[0,0.5,0],[0,0.75,0],[1,0.25,0],[1,0.5,0],[1,0.75,0]];outlineConnect=0;fontColor=#232F3E;fillColor=#7AA116;strokeColor=#ffffff;dashed=0;verticalLabelPosition=bottom;verticalAlign=top;align=center;html=1;fontSize=12;fontStyle=0;aspect=fixed;shape=mxgraph.aws4.resourceIcon;resIcon=mxgraph.aws4.efs_standard;" vertex="1" parent="1">
          <mxGeometry x="84.5" y="411" width="218" height="218" as="geometry" />
        </mxCell>
        <mxCell id="ogxp5oRoSXKM8MfKZvjc-14" style="edgeStyle=orthogonalEdgeStyle;rounded=0;orthogonalLoop=1;jettySize=auto;html=1;exitX=0.75;exitY=1;exitDx=0;exitDy=0;entryX=0;entryY=0.5;entryDx=0;entryDy=0;" edge="1" parent="1" source="SCVMTBWpLvtzJIhz15lM-5" target="ogxp5oRoSXKM8MfKZvjc-8">
          <mxGeometry relative="1" as="geometry" />
        </mxCell>
        <mxCell id="ogxp5oRoSXKM8MfKZvjc-17" value="&lt;b style=&quot;font-size: 13px;&quot;&gt;EFS helper and autofs mounted&lt;/b&gt;" style="edgeLabel;html=1;align=center;verticalAlign=middle;resizable=0;points=[];" vertex="1" connectable="0" parent="ogxp5oRoSXKM8MfKZvjc-14">
          <mxGeometry x="-0.23" y="2" relative="1" as="geometry">
            <mxPoint as="offset" />
          </mxGeometry>
        </mxCell>
        <mxCell id="ogxp5oRoSXKM8MfKZvjc-8" value="us-east-1d" style="whiteSpace=wrap;html=1;fillColor=none;fontSize=14;fontColor=#000000;dashed=0;fontStyle=0;align=center;verticalAlign=top;strokeColor=#D86613;gradientColor=none;spacingLeft=0;labelPosition=center;verticalLabelPosition=bottom;container=1;pointerEvents=0;collapsible=0;recursiveResize=0;" vertex="1" parent="1">
          <mxGeometry x="800" y="640" width="232" height="160" as="geometry" />
        </mxCell>
        <object label="EC2" EC2="" id="ogxp5oRoSXKM8MfKZvjc-3">
          <mxCell style="sketch=0;points=[[0,0,0],[0.25,0,0],[0.5,0,0],[0.75,0,0],[1,0,0],[0,1,0],[0.25,1,0],[0.5,1,0],[0.75,1,0],[1,1,0],[0,0.25,0],[0,0.5,0],[0,0.75,0],[1,0.25,0],[1,0.5,0],[1,0.75,0]];outlineConnect=0;fontColor=#232F3E;fillColor=#ED7100;strokeColor=#ffffff;dashed=0;verticalLabelPosition=bottom;verticalAlign=top;align=center;html=1;fontSize=12;fontStyle=0;aspect=fixed;shape=mxgraph.aws4.resourceIcon;resIcon=mxgraph.aws4.compute;" vertex="1" parent="ogxp5oRoSXKM8MfKZvjc-8">
            <mxGeometry x="77" y="41" width="78" height="78" as="geometry" />
          </mxCell>
        </object>
        <mxCell id="ogxp5oRoSXKM8MfKZvjc-9" value="" style="group" vertex="1" connectable="0" parent="1">
          <mxGeometry x="800" y="440" width="232" height="160" as="geometry" />
        </mxCell>
        <object label="EC2" EC2="" id="ogxp5oRoSXKM8MfKZvjc-2">
          <mxCell style="sketch=0;points=[[0,0,0],[0.25,0,0],[0.5,0,0],[0.75,0,0],[1,0,0],[0,1,0],[0.25,1,0],[0.5,1,0],[0.75,1,0],[1,1,0],[0,0.25,0],[0,0.5,0],[0,0.75,0],[1,0.25,0],[1,0.5,0],[1,0.75,0]];outlineConnect=0;fontColor=#232F3E;fillColor=#ED7100;strokeColor=#ffffff;dashed=0;verticalLabelPosition=bottom;verticalAlign=top;align=center;html=1;fontSize=12;fontStyle=0;aspect=fixed;shape=mxgraph.aws4.resourceIcon;resIcon=mxgraph.aws4.compute;" vertex="1" parent="ogxp5oRoSXKM8MfKZvjc-9">
            <mxGeometry x="77" y="41" width="78" height="78" as="geometry" />
          </mxCell>
        </object>
        <mxCell id="ogxp5oRoSXKM8MfKZvjc-7" value="us-east-1b" style="whiteSpace=wrap;html=1;fillColor=none;fontSize=14;fontColor=#000000;dashed=0;fontStyle=0;align=center;verticalAlign=top;strokeColor=#D86613;gradientColor=none;spacingLeft=0;labelPosition=center;verticalLabelPosition=bottom;container=1;pointerEvents=0;collapsible=0;recursiveResize=0;" vertex="1" parent="ogxp5oRoSXKM8MfKZvjc-9">
          <mxGeometry width="232" height="160" as="geometry" />
        </mxCell>
        <mxCell id="ogxp5oRoSXKM8MfKZvjc-10" value="" style="group" vertex="1" connectable="0" parent="1">
          <mxGeometry x="800" y="223" width="232" height="160" as="geometry" />
        </mxCell>
        <mxCell id="-QjtrjUzRDEMRZ5MF8oH-14" value="us-east-1a" style="whiteSpace=wrap;html=1;fillColor=none;fontSize=14;fontColor=#000000;dashed=0;fontStyle=0;align=center;verticalAlign=top;strokeColor=#D86613;gradientColor=none;spacingLeft=0;labelPosition=center;verticalLabelPosition=bottom;container=1;pointerEvents=0;collapsible=0;recursiveResize=0;" parent="ogxp5oRoSXKM8MfKZvjc-10" vertex="1">
          <mxGeometry width="232" height="160" as="geometry" />
        </mxCell>
        <object label="EC2" EC2="" id="ogxp5oRoSXKM8MfKZvjc-1">
          <mxCell style="sketch=0;points=[[0,0,0],[0.25,0,0],[0.5,0,0],[0.75,0,0],[1,0,0],[0,1,0],[0.25,1,0],[0.5,1,0],[0.75,1,0],[1,1,0],[0,0.25,0],[0,0.5,0],[0,0.75,0],[1,0.25,0],[1,0.5,0],[1,0.75,0]];outlineConnect=0;fontColor=#232F3E;fillColor=#ED7100;strokeColor=#ffffff;dashed=0;verticalLabelPosition=bottom;verticalAlign=top;align=center;html=1;fontSize=12;fontStyle=0;aspect=fixed;shape=mxgraph.aws4.resourceIcon;resIcon=mxgraph.aws4.compute;" vertex="1" parent="ogxp5oRoSXKM8MfKZvjc-10">
            <mxGeometry x="70" y="42" width="78" height="78" as="geometry" />
          </mxCell>
        </object>
        <mxCell id="ogxp5oRoSXKM8MfKZvjc-12" style="edgeStyle=orthogonalEdgeStyle;rounded=0;orthogonalLoop=1;jettySize=auto;html=1;exitX=1.05;exitY=0.003;exitDx=0;exitDy=0;entryX=0;entryY=0.5;entryDx=0;entryDy=0;exitPerimeter=0;" edge="1" parent="1" source="SCVMTBWpLvtzJIhz15lM-5" target="-QjtrjUzRDEMRZ5MF8oH-14">
          <mxGeometry relative="1" as="geometry" />
        </mxCell>
        <mxCell id="ogxp5oRoSXKM8MfKZvjc-15" value="&lt;font style=&quot;font-size: 13px;&quot;&gt;&lt;b&gt;EFS helper and autofs mounted&lt;/b&gt;&lt;/font&gt;" style="edgeLabel;html=1;align=center;verticalAlign=middle;resizable=0;points=[];" vertex="1" connectable="0" parent="ogxp5oRoSXKM8MfKZvjc-12">
          <mxGeometry x="-0.0871" relative="1" as="geometry">
            <mxPoint as="offset" />
          </mxGeometry>
        </mxCell>
        <mxCell id="ogxp5oRoSXKM8MfKZvjc-13" style="edgeStyle=orthogonalEdgeStyle;rounded=0;orthogonalLoop=1;jettySize=auto;html=1;exitX=0;exitY=0.5;exitDx=0;exitDy=0;entryX=0;entryY=0.5;entryDx=0;entryDy=0;" edge="1" parent="1" target="ogxp5oRoSXKM8MfKZvjc-7">
          <mxGeometry relative="1" as="geometry">
            <mxPoint x="450" y="520" as="sourcePoint" />
          </mxGeometry>
        </mxCell>
        <mxCell id="ogxp5oRoSXKM8MfKZvjc-16" value="&lt;b style=&quot;font-size: 13px;&quot;&gt;EFS helper and autofs mounted&lt;/b&gt;" style="edgeLabel;html=1;align=center;verticalAlign=middle;resizable=0;points=[];" vertex="1" connectable="0" parent="ogxp5oRoSXKM8MfKZvjc-13">
          <mxGeometry x="-0.1498" y="1" relative="1" as="geometry">
            <mxPoint as="offset" />
          </mxGeometry>
        </mxCell>
        <mxCell id="ogxp5oRoSXKM8MfKZvjc-18" value="3" style="rounded=1;whiteSpace=wrap;html=1;fillColor=#007CBD;strokeColor=none;fontColor=#FFFFFF;fontStyle=1;fontSize=22;" vertex="1" parent="1">
          <mxGeometry x="800" y="162.5" width="40" height="38" as="geometry" />
        </mxCell>
        <mxCell id="ogxp5oRoSXKM8MfKZvjc-19" value="&lt;font style=&quot;font-size: 15px;&quot;&gt;&lt;b&gt;EFS network mount&lt;/b&gt;&lt;/font&gt;" style="text;html=1;align=center;verticalAlign=middle;resizable=0;points=[];autosize=1;strokeColor=none;fillColor=none;" vertex="1" parent="1">
          <mxGeometry x="540" y="232.5" width="160" height="30" as="geometry" />
        </mxCell>
        <mxCell id="ogxp5oRoSXKM8MfKZvjc-20" style="edgeStyle=orthogonalEdgeStyle;rounded=0;orthogonalLoop=1;jettySize=auto;html=1;exitX=1;exitY=0.5;exitDx=0;exitDy=0;exitPerimeter=0;entryX=0.1;entryY=0.5;entryDx=0;entryDy=0;entryPerimeter=0;" edge="1" parent="1" source="ogxp5oRoSXKM8MfKZvjc-4" target="SCVMTBWpLvtzJIhz15lM-5">
          <mxGeometry relative="1" as="geometry" />
        </mxCell>
      </root>
    </mxGraphModel>
  </diagram>
</mxfile>
